PathFileType  4	(X/Y/Z) C:\Users\antoi\Documents\MyRepositories\mobilecap\ResultsAnalysis
DataRate	CameraRate	NumFrames	NumMarkers	Units	OrigDataRate	OrigDataStartFrame	OrigNumFrames
100.0	100.0	5	55	mm	100.0	376	601
Frame#	Time	r_knee			r_shank_antsup			r_ankle			r_calc			r_5meta			r_toe			L_knee			L_shank_antsup			L_ankle			L_calc			L_5meta			L_toe			r_mknee			r_mankle			L_mknee			L_mankle			r_sh2			r_sh3			r_sh4			L_sh2			L_sh3			r_thigh1			r_thigh2			r_thigh3			r_thigh4			r_thigh5			L_thigh1			L_thigh2			L_thigh3			L_thigh4			r.ASIS			r.PSIS			L.ASIS			L.PSIS			C7			R_Shoulder			L_Shoulder			R_Sternum			L_Sternum			R_humerus			R_elbow_med			R_elbow_lat			R_forearm			R_wrist_radius			R_wrist_ulna			L_humerus			L_elbow_med			L_elbow_lat			L_forearm			L_wrist_radius			L_wrist_ulna			R_HJC			L_HJC			R_HJC_reg			L_HJC_reg			
		X1	Y1	Z1	X2	Y2	Z2	X3	Y3	Z3	X4	Y4	Z4	X5	Y5	Z5	X6	Y6	Z6	X7	Y7	Z7	X8	Y8	Z8	X9	Y9	Z9	X10	Y10	Z10	X11	Y11	Z11	X12	Y12	Z12	X13	Y13	Z13	X14	Y14	Z14	X15	Y15	Z15	X16	Y16	Z16	X17	Y17	Z17	X18	Y18	Z18	X19	Y19	Z19	X20	Y20	Z20	X21	Y21	Z21	X22	Y22	Z22	X23	Y23	Z23	X24	Y24	Z24	X25	Y25	Z25	X26	Y26	Z26	X27	Y27	Z27	X28	Y28	Z28	X29	Y29	Z29	X30	Y30	Z30	X31	Y31	Z31	X32	Y32	Z32	X33	Y33	Z33	X34	Y34	Z34	X35	Y35	Z35	X36	Y36	Z36	X37	Y37	Z37	X38	Y38	Z38	X39	Y39	Z39	X40	Y40	Z40	X41	Y41	Z41	X42	Y42	Z42	X43	Y43	Z43	X44	Y44	Z44	X45	Y45	Z45	X46	Y46	Z46	X47	Y47	Z47	X48	Y48	Z48	X49	Y49	Z49	X50	Y50	Z50	X51	Y51	Z51	X52	Y52	Z52	X53	Y53	Z53	X54	Y54	Z54	X55	Y55	Z55	

376	3.75000000	-195.79086	547.73112	-438.65727	-169.81554	451.70767	-445.77167	-274.17707	122.71489	-468.15505	-356.43837	74.31923	-516.29351	-166.19448	47.74066	-415.50803	-104.11087	74.04073	-475.41519	-192.37780	548.53306	-777.81758	-198.31462	459.95738	-802.31504	-259.18162	125.65199	-752.93879	-342.30889	74.62935	-701.67936	-148.22870	50.51223	-784.46740	-89.98527	76.13161	-720.26876	-185.59355	534.97482	-573.24414	-239.77157	134.08202	-557.61478	-181.25445	541.57581	-641.88256	-237.91759	130.66994	-656.28764	-199.34537	344.49998	-420.80834	-231.48495	476.66714	-408.40203	-276.73206	369.55262	-402.06996	-287.99528	472.45263	-795.45275	-290.81854	350.34160	-792.67428	-97.36129	866.98582	-419.17847	-104.28628	756.76335	-424.09437	-162.32481	733.82306	-400.45672	-211.09228	867.96206	-416.48455	-210.80455	753.06790	-420.67388	-88.64946	831.65703	-784.01618	-94.56899	691.51792	-772.80528	-197.98803	834.56691	-800.69401	-207.18220	697.71143	-795.38839	-84.92222	1084.00721	-464.91408	-261.04645	1094.31334	-544.34335	-70.86770	1087.61354	-716.65608	-256.91487	1093.21941	-652.09434	-242.78144	1630.94169	-595.88381	-168.43980	1572.41117	-428.76467	-188.29835	1574.45969	-769.02674	-112.52864	1557.85313	-568.86148	-115.15526	1555.02175	-626.20874	-147.81306	1416.11962	-359.39780	-208.77310	1208.92209	-389.38029	-201.27873	1232.83322	-309.61202	-134.61799	1077.42491	-264.72912	-86.75607	992.10845	-259.34510	-130.46431	994.48878	-242.53803	-202.55507	1447.84670	-847.19822	-214.49806	1208.40181	-805.43681	-215.94113	1227.69533	-882.71402	-170.74226	1176.96206	-923.26969	-103.53725	1012.38202	-955.83576	-143.38673	1001.82808	-959.82585	-157.68481	965.94678	-490.93835	-152.26926	974.33329	-697.65821	-140.01791	1003.63914	-501.74867	-133.64122	1001.95026	-668.04349	
377	3.76000000	-195.87143	547.74791	-438.74231	-169.83591	451.71426	-445.77487	-274.17315	122.70662	-468.15480	-356.41280	74.32486	-516.27813	-166.19685	47.74457	-415.52468	-104.08474	74.06963	-475.39960	-192.39123	548.51522	-777.75017	-198.33275	459.96531	-802.31048	-259.18524	125.63944	-752.88028	-342.27525	74.63846	-701.65986	-148.23105	50.53195	-784.46076	-89.99190	76.19139	-720.30771	-185.64439	534.95848	-573.26973	-239.76584	134.10635	-557.61203	-181.27010	541.57698	-641.89104	-237.91084	130.69160	-656.29481	-199.36759	344.45557	-420.79166	-231.51283	476.66461	-408.46769	-276.75652	369.55971	-402.08323	-288.00738	472.47246	-795.45581	-290.82512	350.35341	-792.67046	-97.45523	867.02613	-419.20117	-104.34017	756.77870	-424.11321	-162.41541	733.81648	-400.49484	-211.21982	867.97361	-416.47535	-210.85444	753.06923	-420.68418	-88.63627	831.66015	-784.03439	-94.59999	691.52621	-772.81339	-198.06263	834.54031	-800.58344	-207.20764	697.72324	-795.38825	-84.98037	1084.00664	-464.97619	-261.10862	1094.29528	-544.33720	-70.91337	1087.62851	-716.64890	-256.92225	1093.16846	-652.20523	-242.77714	1630.96948	-595.86674	-168.44442	1572.40890	-428.76236	-188.31159	1574.47480	-769.03026	-112.54804	1557.87911	-568.86958	-115.17357	1555.05260	-626.20804	-147.81901	1416.13275	-359.44443	-208.84554	1208.91017	-389.37376	-201.31054	1232.87271	-309.59817	-134.67308	1077.45012	-264.73991	-86.80038	992.14447	-259.33795	-130.49501	994.50138	-242.52985	-202.59407	1447.88808	-847.20458	-214.56383	1208.42325	-805.41427	-216.01845	1227.74904	-882.81926	-170.77779	1177.11836	-923.42743	-103.62793	1012.39344	-955.89220	-143.51586	1001.81700	-959.75289	-157.71387	965.93580	-490.97657	-152.27231	974.32318	-697.69571	-140.10556	1003.69274	-501.80377	-133.65342	1001.95607	-668.04992	
378	3.77000000	-195.89508	547.79553	-438.68383	-169.83375	451.72058	-445.78688	-274.18743	122.65006	-468.19196	-356.40292	74.34067	-516.27383	-166.17458	47.75147	-415.52269	-104.06742	74.09864	-475.40281	-192.42432	548.55836	-777.79681	-198.35181	459.97925	-802.31497	-259.20382	125.58623	-752.77948	-342.20454	74.68824	-701.66104	-148.23304	50.55040	-784.45651	-90.01094	76.20023	-720.29183	-185.67162	534.94354	-573.26982	-239.76394	134.12443	-557.61429	-181.29113	541.57445	-641.90302	-237.91049	130.70554	-656.30123	-199.32156	344.51154	-420.83523	-231.49068	476.73910	-408.44585	-276.75957	369.58412	-402.08831	-288.03471	472.47955	-795.43991	-290.84026	350.35174	-792.67033	-97.56736	867.08641	-419.19092	-104.42720	756.79036	-424.12388	-162.50657	733.74325	-400.50668	-211.30479	867.96944	-416.44398	-210.87296	753.07995	-420.66697	-88.67398	831.71443	-784.04779	-94.62925	691.52926	-772.82206	-198.09329	834.56172	-800.59807	-207.23539	697.72694	-795.38122	-85.02335	1084.02323	-465.01393	-261.15374	1094.29953	-544.33398	-70.95844	1087.64253	-716.64038	-256.81194	1092.90394	-652.64543	-242.77970	1630.98686	-595.86351	-168.46730	1572.36549	-428.76369	-188.32047	1574.48900	-769.03055	-112.57059	1557.91351	-568.88506	-115.18455	1555.08121	-626.20576	-147.82296	1416.12925	-359.44855	-208.87462	1208.97893	-389.37327	-201.33517	1232.92554	-309.58919	-134.73670	1077.47732	-264.72929	-86.84473	992.18342	-259.35508	-130.53251	994.53358	-242.50792	-202.62634	1447.92520	-847.20987	-214.67269	1208.49537	-805.36416	-216.08405	1227.77758	-882.89359	-170.83509	1177.17025	-923.42835	-103.71203	1012.40338	-955.92324	-143.61651	1001.76759	-959.67228	-157.68847	965.93301	-491.03110	-152.12204	974.23261	-697.75041	-140.32214	1003.99280	-501.71733	-133.66038	1001.85287	-667.91930	
379	3.78000000	-195.86815	547.81073	-438.56044	-169.83615	451.74470	-445.80027	-274.19476	122.62053	-468.23282	-356.41422	74.34011	-516.24875	-166.14816	47.74955	-415.49288	-104.09643	74.09347	-475.40285	-192.47395	548.64029	-777.92583	-198.36129	460.02835	-802.37857	-259.23690	125.56306	-752.75297	-342.18484	74.71884	-701.67235	-148.23304	50.55940	-784.45445	-90.01686	76.16524	-720.24773	-185.69585	534.93215	-573.31000	-239.76291	134.13734	-557.61503	-181.30461	541.57626	-641.90956	-237.91254	130.70380	-656.30349	-199.25176	344.58424	-420.88205	-231.50697	476.74618	-408.41321	-276.75999	369.58089	-402.07840	-288.06470	472.48055	-795.43311	-290.84801	350.35365	-792.67768	-97.65998	867.12305	-419.19375	-104.46789	756.78697	-424.12150	-162.53439	733.67776	-400.49781	-211.33589	867.94821	-416.43194	-210.89566	753.08043	-420.67032	-88.80770	831.76206	-784.01853	-94.65037	691.54074	-772.82062	-198.10324	834.60369	-800.66879	-207.27093	697.72491	-795.36273	-85.07783	1083.99752	-465.04036	-261.21480	1094.33654	-544.37555	-71.00956	1087.65785	-716.64106	-256.71974	1092.67620	-653.07442	-242.79428	1631.00095	-595.88346	-168.47308	1572.35600	-428.76358	-188.33445	1574.50762	-769.03645	-112.58147	1557.94444	-568.89121	-115.19177	1555.10750	-626.19562	-147.84747	1416.12008	-359.43757	-208.85391	1209.03634	-389.38341	-201.38603	1232.95574	-309.62459	-134.79474	1077.47921	-264.70632	-86.90696	992.20795	-259.37045	-130.60287	994.56542	-242.48573	-202.64519	1447.95804	-847.22671	-214.73362	1208.54352	-805.33469	-216.13560	1227.80715	-882.90726	-170.90359	1177.17903	-923.40261	-103.78802	1012.40656	-955.91011	-143.69243	1001.75004	-959.64990	-157.71803	965.91719	-491.11319	-152.01313	974.16123	-697.83098	-140.58422	1004.28707	-501.62711	-133.71257	1001.74903	-667.79904	
380	3.79000000	-195.84813	547.79099	-438.54795	-169.85623	451.74792	-445.78201	-274.17911	122.62577	-468.23696	-356.42691	74.30788	-516.19469	-166.14189	47.74567	-415.47560	-104.11141	74.08102	-475.38516	-192.51321	548.67436	-777.98336	-198.36735	460.10489	-802.49535	-259.25726	125.56290	-752.75643	-342.20409	74.71258	-701.67331	-148.22917	50.55930	-784.45303	-90.04336	76.10246	-720.23348	-185.71573	534.92684	-573.37629	-239.75988	134.13991	-557.61394	-181.31782	541.57248	-641.91477	-237.90829	130.68144	-656.30232	-199.23917	344.55967	-420.88703	-231.53359	476.67307	-408.40204	-276.76238	369.54829	-402.05150	-288.09632	472.49386	-795.46341	-290.86000	350.35321	-792.68224	-97.72684	867.11366	-419.20555	-104.46564	756.77707	-424.11616	-162.50786	733.70610	-400.49068	-211.35604	867.91998	-416.43629	-210.92288	753.06086	-420.68079	-88.87089	831.76786	-784.00802	-94.67239	691.55263	-772.81836	-198.14344	834.60470	-800.64151	-207.30898	697.72844	-795.35645	-85.15311	1083.92735	-465.06695	-261.28135	1094.35642	-544.42303	-71.06096	1087.66773	-716.64432	-256.81229	1092.72212	-653.11229	-242.81822	1631.00869	-595.89711	-168.46386	1572.36935	-428.75204	-188.35167	1574.52167	-769.04025	-112.58317	1557.95684	-568.88273	-115.19855	1555.12017	-626.18476	-147.89136	1416.12825	-359.43749	-208.87121	1209.05891	-389.37334	-201.44528	1232.94427	-309.67271	-134.83812	1077.48917	-264.69560	-86.96335	992.20831	-259.33524	-130.68363	994.56810	-242.47458	-202.65436	1447.98258	-847.24098	-214.77367	1208.52417	-805.36426	-216.18044	1227.89137	-882.96960	-170.99714	1177.24566	-923.55206	-103.85721	1012.40788	-955.89457	-143.78278	1001.76477	-959.65047	-157.84060	965.88165	-491.18077	-152.11249	974.19037	-697.89534	-140.66478	1004.26638	-501.65535	-133.83266	1001.76777	-667.81583	
